<svg id="visual" viewBox="0 0 900 600" width="900" height="600" xmlns="http://www.w3.org/2000/svg" xmlns:xlink="http://www.w3.org/1999/xlink" version="1.1"><rect x="0" y="0" width="900" height="600" fill="#012169"></rect><path d="M0 112L39 112L39 110L78 110L78 59L117 59L117 150L157 150L157 218L196 218L196 170L235 170L235 153L274 153L274 149L313 149L313 76L352 76L352 67L391 67L391 140L430 140L430 210L470 210L470 223L509 223L509 158L548 158L548 78L587 78L587 54L626 54L626 100L665 100L665 200L704 200L704 201L743 201L743 131L783 131L783 206L822 206L822 191L861 191L861 85L900 85L900 193L900 601L900 601L861 601L861 601L822 601L822 601L783 601L783 601L743 601L743 601L704 601L704 601L665 601L665 601L626 601L626 601L587 601L587 601L548 601L548 601L509 601L509 601L470 601L470 601L430 601L430 601L391 601L391 601L352 601L352 601L313 601L313 601L274 601L274 601L235 601L235 601L196 601L196 601L157 601L157 601L117 601L117 601L78 601L78 601L39 601L39 601L0 601Z" fill="#009739"></path><path d="M0 268L39 268L39 318L78 318L78 188L117 188L117 171L157 171L157 161L196 161L196 240L235 240L235 152L274 152L274 212L313 212L313 223L352 223L352 318L391 318L391 267L430 267L430 266L470 266L470 285L509 285L509 246L548 246L548 151L587 151L587 185L626 185L626 170L665 170L665 231L704 231L704 208L743 208L743 170L783 170L783 285L822 285L822 203L861 203L861 238L900 238L900 166L900 601L900 601L861 601L861 601L822 601L822 601L783 601L783 601L743 601L743 601L704 601L704 601L665 601L665 601L626 601L626 601L587 601L587 601L548 601L548 601L509 601L509 601L470 601L470 601L430 601L430 601L391 601L391 601L352 601L352 601L313 601L313 601L274 601L274 601L235 601L235 601L196 601L196 601L157 601L157 601L117 601L117 601L78 601L78 601L39 601L39 601L0 601Z" fill="#56ab2c"></path><path d="M0 305L39 305L39 261L78 261L78 244L117 244L117 251L157 251L157 356L196 356L196 310L235 310L235 302L274 302L274 328L313 328L313 338L352 338L352 252L391 252L391 362L430 362L430 342L470 342L470 243L509 243L509 349L548 349L548 288L587 288L587 299L626 299L626 244L665 244L665 390L704 390L704 285L743 285L743 372L783 372L783 273L822 273L822 306L861 306L861 298L900 298L900 295L900 601L900 601L861 601L861 601L822 601L822 601L783 601L783 601L743 601L743 601L704 601L704 601L665 601L665 601L626 601L626 601L587 601L587 601L548 601L548 601L509 601L509 601L470 601L470 601L430 601L430 601L391 601L391 601L352 601L352 601L313 601L313 601L274 601L274 601L235 601L235 601L196 601L196 601L157 601L157 601L117 601L117 601L78 601L78 601L39 601L39 601L0 601Z" fill="#8dbe1a"></path><path d="M0 476L39 476L39 445L78 445L78 364L117 364L117 414L157 414L157 407L196 407L196 372L235 372L235 476L274 476L274 388L313 388L313 345L352 345L352 345L391 345L391 347L430 347L430 334L470 334L470 477L509 477L509 379L548 379L548 378L587 378L587 349L626 349L626 355L665 355L665 340L704 340L704 486L743 486L743 410L783 410L783 360L822 360L822 339L861 339L861 408L900 408L900 419L900 601L900 601L861 601L861 601L822 601L822 601L783 601L783 601L743 601L743 601L704 601L704 601L665 601L665 601L626 601L626 601L587 601L587 601L548 601L548 601L509 601L509 601L470 601L470 601L430 601L430 601L391 601L391 601L352 601L352 601L313 601L313 601L274 601L274 601L235 601L235 601L196 601L196 601L157 601L157 601L117 601L117 601L78 601L78 601L39 601L39 601L0 601Z" fill="#c4cf01"></path><path d="M0 547L39 547L39 562L78 562L78 485L117 485L117 467L157 467L157 486L196 486L196 461L235 461L235 430L274 430L274 449L313 449L313 534L352 534L352 436L391 436L391 430L430 430L430 447L470 447L470 522L509 522L509 465L548 465L548 526L587 526L587 518L626 518L626 471L665 471L665 561L704 561L704 471L743 471L743 476L783 476L783 546L822 546L822 497L861 497L861 548L900 548L900 438L900 601L900 601L861 601L861 601L822 601L822 601L783 601L783 601L743 601L743 601L704 601L704 601L665 601L665 601L626 601L626 601L587 601L587 601L548 601L548 601L509 601L509 601L470 601L470 601L430 601L430 601L391 601L391 601L352 601L352 601L313 601L313 601L274 601L274 601L235 601L235 601L196 601L196 601L157 601L157 601L117 601L117 601L78 601L78 601L39 601L39 601L0 601Z" fill="#fedd00"></path></svg>